<?xml version="1.0" standalone="no"?><!DOCTYPE svg PUBLIC "-//W3C//DTD SVG 1.1//EN" "http://www.w3.org/Graphics/SVG/1.1/DTD/svg11.dtd"><svg t="1510642897909" class="icon" style="" viewBox="0 0 1024 1024" version="1.1" xmlns="http://www.w3.org/2000/svg" p-id="1043" xmlns:xlink="http://www.w3.org/1999/xlink" width="24" height="24">
<path d="M407.71584 205.86496l-40.77568-3.7888c0.88064-9.66656-5.3248-16.46592-15.31904-16.50688l-187.94496-0.88064A40.448 40.448 0 0 0 122.88 225.0752v573.8496C122.88 821.41184 141.25056 839.68 164.00384 839.68h695.99232A41.04192 41.04192 0 0 0 901.12 798.63808V307.28192a40.69376 40.69376 0 0 0-40.96-40.77568l-413.30688 1.3312c-46.65344 0.14336-82.432-38.68672-78.11072-85.1968l37.51936 3.4816c1.55648 6.20544 2.08896 12.84096 1.45408 19.74272l1.80224-19.43552c-0.67584 7.24992 0.6144 14.04928 3.46112 19.92704l-5.26336-0.49152z m-38.97344-23.22432l-1.80224 19.43552 46.03904 4.28032c5.89824 12.288 18.51392 20.56192 33.75104 20.52096l413.30688-1.3312A81.65376 81.65376 0 0 1 942.08 307.28192v491.35616A82.00192 82.00192 0 0 1 859.99616 880.64H164.00384A81.87904 81.87904 0 0 1 81.92 798.9248V225.0752a81.408 81.408 0 0 1 81.92-81.34656l187.98592 0.88064c27.0336 0.12288 48.37376 17.5104 54.43584 41.51296l-37.51936-3.4816z" fill="#000000" p-id="1044"></path><path d="M136.92928 399.1552c7.43424-6.43072 16.91648-10.0352 27.0336-10.0352h696.05376A40.96 40.96 0 0 1 901.12 429.89568h40.96A81.92 81.92 0 0 0 860.01664 348.16H163.98336c-20.0704 0-39.07584 7.20896-53.90336 20.0704A81.44896 81.44896 0 0 0 81.92 429.8752h40.96c0-11.96032 5.16096-23.01952 14.04928-30.72z" fill="#000000" p-id="1045"></path></svg>