<?xml version="1.0" standalone="no"?><!DOCTYPE svg PUBLIC "-//W3C//DTD SVG 1.1//EN" "http://www.w3.org/Graphics/SVG/1.1/DTD/svg11.dtd"><svg t="1510642339513" class="icon" style="" viewBox="0 0 1024 1024" version="1.1" xmlns="http://www.w3.org/2000/svg" p-id="31975" xmlns:xlink="http://www.w3.org/1999/xlink" width="24" height="24"><path d="M1024 960c0 35.346-28.654 64-64 64h-896c-35.346 0-64-28.654-64-64v-640c0-35.346 28.654-64 64-64h896c35.346 0 64 28.654 64 64v640z" fill="#efb336" p-id="31976"></path><path d="M960 128h-448v-64c0-35.346-28.654-64-64-64h-384c-35.346 0-64 28.654-64 64v256c0-35.346 28.654-64 64-64h896c35.346 0 64 28.654 64 64v-128c0-35.346-28.654-64-64-64z" fill="#434854" p-id="31977"></path><path d="M960 224h-896c-35.346 0-64 28.654-64 64v32c0-35.346 28.654-64 64-64h896c35.346 0 64 28.654 64 64v-32c0-35.346-28.654-64-64-64z" fill="" p-id="31978"></path><path d="M128 192h768v64h-768z" fill="#EAEAEA" p-id="31979"></path><path d="M532.427 508.541c-2.114-2.111-6.080-1.559-8.19 0.548l-17.414 17.414-7.64-7.641c-0.965-0.912-2.271-1.473-3.71-1.473-2.985 0-5.406 2.42-5.406 5.405 0 1.437 0.56 2.742 1.476 3.711l11.46 11.46c0.979 0.978 2.327 1.582 3.818 1.582s2.842-0.604 3.818-1.582l21.973-21.626c2.104-2.105 1.918-5.688-0.19-7.799z" fill="#efb336" p-id="31980"></path></svg>